<mxfile host="app.diagrams.net" modified="2023-12-22T09:39:53.475Z" agent="Mozilla/5.0 (Windows NT 10.0; Win64; x64) AppleWebKit/537.36 (KHTML, like Gecko) Chrome/120.0.0.0 Safari/537.36" etag="X8yYAdKNEH9-j79kMzZr" version="22.1.11" type="github">
  <diagram name="Page-1" id="03018318-947c-dd8e-b7a3-06fadd420f32">
    <mxGraphModel dx="2100" dy="1994" grid="1" gridSize="10" guides="1" tooltips="1" connect="1" arrows="1" fold="1" page="1" pageScale="1" pageWidth="1100" pageHeight="850" background="none" math="0" shadow="0">
      <root>
        <mxCell id="0" />
        <mxCell id="1" parent="0" />
        <mxCell id="677b7b8949515195-1" value="" style="whiteSpace=wrap;html=1;rounded=0;shadow=0;labelBackgroundColor=none;strokeColor=#000000;strokeWidth=1;fillColor=none;fontFamily=Verdana;fontSize=12;fontColor=#000000;align=center;comic=1;" parent="1" vertex="1">
          <mxGeometry x="20" y="-130" width="1060" height="720" as="geometry" />
        </mxCell>
        <mxCell id="677b7b8949515195-2" value="LOGO" style="whiteSpace=wrap;html=1;rounded=0;shadow=0;labelBackgroundColor=none;strokeWidth=1;fontFamily=Verdana;fontSize=28;align=center;comic=1;" parent="1" vertex="1">
          <mxGeometry x="50" y="-100" width="190" height="50" as="geometry" />
        </mxCell>
        <mxCell id="mznN22p75zOINk3rR5KD-5" value="&lt;font face=&quot;Verdana&quot;&gt;Browse more products?&lt;/font&gt;" style="text;html=1;strokeColor=none;fillColor=none;align=center;verticalAlign=middle;whiteSpace=wrap;rounded=0;fontSize=16;" vertex="1" parent="1">
          <mxGeometry x="630" y="510" width="230" height="30" as="geometry" />
        </mxCell>
        <mxCell id="mznN22p75zOINk3rR5KD-7" value="Checkout" style="strokeWidth=1;shadow=0;dashed=0;align=center;html=1;shape=mxgraph.mockup.buttons.button;strokeColor=#666666;fontColor=#ffffff;mainText=;buttonStyle=round;fontSize=17;fontStyle=1;fillColor=#008cff;whiteSpace=wrap;" vertex="1" parent="1">
          <mxGeometry x="850" y="500" width="150" height="50" as="geometry" />
        </mxCell>
        <mxCell id="mznN22p75zOINk3rR5KD-13" value="" style="rounded=0;whiteSpace=wrap;html=1;fontSize=16;" vertex="1" parent="1">
          <mxGeometry x="140" y="-10" width="760" height="380" as="geometry" />
        </mxCell>
        <mxCell id="mznN22p75zOINk3rR5KD-14" value="&lt;font face=&quot;Verdana&quot;&gt;Item 1&lt;/font&gt;" style="rounded=0;whiteSpace=wrap;html=1;fontSize=16;" vertex="1" parent="1">
          <mxGeometry x="170" y="20" width="270" height="60" as="geometry" />
        </mxCell>
        <mxCell id="mznN22p75zOINk3rR5KD-15" value="Quantity" style="rounded=0;whiteSpace=wrap;html=1;fontSize=16;" vertex="1" parent="1">
          <mxGeometry x="460" y="20" width="180" height="60" as="geometry" />
        </mxCell>
        <mxCell id="mznN22p75zOINk3rR5KD-16" value="Total for item 1" style="rounded=0;whiteSpace=wrap;html=1;fontSize=16;" vertex="1" parent="1">
          <mxGeometry x="660" y="20" width="180" height="60" as="geometry" />
        </mxCell>
        <mxCell id="mznN22p75zOINk3rR5KD-17" value="Item 2" style="rounded=0;whiteSpace=wrap;html=1;fontSize=16;" vertex="1" parent="1">
          <mxGeometry x="170" y="110" width="270" height="60" as="geometry" />
        </mxCell>
        <mxCell id="mznN22p75zOINk3rR5KD-18" value="Quantity" style="rounded=0;whiteSpace=wrap;html=1;fontSize=16;" vertex="1" parent="1">
          <mxGeometry x="460" y="110" width="180" height="60" as="geometry" />
        </mxCell>
        <mxCell id="mznN22p75zOINk3rR5KD-19" value="Total for item 2" style="rounded=0;whiteSpace=wrap;html=1;fontSize=16;" vertex="1" parent="1">
          <mxGeometry x="660" y="100" width="180" height="60" as="geometry" />
        </mxCell>
        <mxCell id="mznN22p75zOINk3rR5KD-21" value="" style="verticalLabelPosition=bottom;shadow=0;dashed=0;align=center;html=1;verticalAlign=top;strokeWidth=1;shape=mxgraph.mockup.markup.line;strokeColor=#999999;direction=north;fontSize=16;" vertex="1" parent="1">
          <mxGeometry x="640" y="20" width="20" height="150" as="geometry" />
        </mxCell>
        <mxCell id="mznN22p75zOINk3rR5KD-22" value="" style="verticalLabelPosition=bottom;shadow=0;dashed=0;align=center;html=1;verticalAlign=top;strokeWidth=1;shape=mxgraph.mockup.markup.line;strokeColor=#999999;fontSize=16;" vertex="1" parent="1">
          <mxGeometry x="170" y="160" width="680" height="90" as="geometry" />
        </mxCell>
        <mxCell id="mznN22p75zOINk3rR5KD-24" value="Checkout Total:" style="text;html=1;strokeColor=none;fillColor=none;align=center;verticalAlign=middle;whiteSpace=wrap;rounded=0;fontSize=16;" vertex="1" parent="1">
          <mxGeometry x="520" y="215" width="150" height="30" as="geometry" />
        </mxCell>
        <mxCell id="mznN22p75zOINk3rR5KD-25" value="Total" style="rounded=0;whiteSpace=wrap;html=1;fontSize=16;" vertex="1" parent="1">
          <mxGeometry x="660" y="215" width="180" height="30" as="geometry" />
        </mxCell>
        <mxCell id="mznN22p75zOINk3rR5KD-26" value="Payment options?" style="text;html=1;strokeColor=none;fillColor=none;align=center;verticalAlign=middle;whiteSpace=wrap;rounded=0;fontSize=16;" vertex="1" parent="1">
          <mxGeometry x="180" y="310" width="180" height="30" as="geometry" />
        </mxCell>
        <mxCell id="mznN22p75zOINk3rR5KD-27" value="Mpesa" style="strokeWidth=1;shadow=0;dashed=0;align=center;html=1;shape=mxgraph.mockup.buttons.button;strokeColor=#666666;fontColor=#ffffff;mainText=;buttonStyle=round;fontSize=17;fontStyle=1;fillColor=#008cff;whiteSpace=wrap;" vertex="1" parent="1">
          <mxGeometry x="360" y="300" width="150" height="50" as="geometry" />
        </mxCell>
        <mxCell id="mznN22p75zOINk3rR5KD-28" value="Card" style="strokeWidth=1;shadow=0;dashed=0;align=center;html=1;shape=mxgraph.mockup.buttons.button;strokeColor=#666666;fontColor=#ffffff;mainText=;buttonStyle=round;fontSize=17;fontStyle=1;fillColor=#008cff;whiteSpace=wrap;" vertex="1" parent="1">
          <mxGeometry x="530" y="300" width="150" height="50" as="geometry" />
        </mxCell>
        <mxCell id="mznN22p75zOINk3rR5KD-29" value="-" style="strokeWidth=1;shadow=0;dashed=0;align=center;html=1;shape=mxgraph.mockup.buttons.button;strokeColor=#666666;fontColor=#ffffff;mainText=;buttonStyle=round;fontSize=17;fontStyle=1;fillColor=#008cff;whiteSpace=wrap;" vertex="1" parent="1">
          <mxGeometry x="850" y="20" width="40" height="50" as="geometry" />
        </mxCell>
        <mxCell id="mznN22p75zOINk3rR5KD-31" value="-" style="strokeWidth=1;shadow=0;dashed=0;align=center;html=1;shape=mxgraph.mockup.buttons.button;strokeColor=#666666;fontColor=#ffffff;mainText=;buttonStyle=round;fontSize=17;fontStyle=1;fillColor=#008cff;whiteSpace=wrap;" vertex="1" parent="1">
          <mxGeometry x="850" y="100" width="40" height="50" as="geometry" />
        </mxCell>
      </root>
    </mxGraphModel>
  </diagram>
</mxfile>
